<svg width="666" height="202" viewBox="0 0 666 202" fill="none" xmlns="http://www.w3.org/2000/svg">
<path d="M663 210.053C663 210.053 679.5 152.053 615.5 83.0534C551.5 14.0534 449.5 4.55342 449.5 4.55342C75.5 -30.9467 1 210.054 1 260.054M630 234.553C630 234.553 654 175.053 590 106.053C526 37.0535 419 33.0534 419 33.0534C116 33.0534 69.5 210.053 69.5 260.053M602 260.053C602 260.053 626 200.553 562 131.553C498 62.5534 396 69.5534 396 69.5534C170 83.0534 131 210.053 131 260.053" stroke="#131313" stroke-opacity="0.63" stroke-width="2"/>
</svg>
